<svg width="1296" height="404" viewBox="0 0 1296 404" fill="none" xmlns="http://www.w3.org/2000/svg">
<g clip-path="url(#clip0_824_127)">
<path d="M691.08 205.37C708.31 195.89 722.64 181.06 731.58 163.55C734.79 157.25 734.1 151.69 732.09 145.12C730.55 140.08 728.14 138.24 722.68 138.44C696.17 139.41 689.1 167.23 685.24 188.3C684.28 193.57 680.19 211.37 691.08 205.37Z" stroke="#FBA58A" stroke-width="2"/>
<path d="M554.17 145.55C520.5 142.63 513.65 183.79 511.42 207.58C510.81 214.17 515.43 214.2 519.91 211.57C534.877 202.777 546.863 191.07 555.87 176.45C559.317 170.85 561.2 166.097 561.52 162.19C561.83 158.46 559.75 146.04 554.17 145.55Z" stroke="#FBA58A" stroke-width="2"/>
<path d="M959.88 129.68C960.12 128.04 960.24 126.96 960.24 126.44C960.253 87.58 960.257 48.65 960.25 9.64998C960.25 9.20331 960.473 8.97998 960.92 8.97998L1021.75 9.02998C1022.02 9.02998 1022.16 9.16665 1022.16 9.43998C1022.42 37.1666 1022.54 64.8466 1022.51 92.48C1022.51 92.5933 1022.46 92.71 1022.35 92.83C1022.24 92.9566 1022.19 93.1033 1022.19 93.27L1022.71 309.52C1022.71 309.78 1022.61 310.029 1022.42 310.213C1022.24 310.397 1021.99 310.5 1021.73 310.5H961.02C960.826 310.5 960.639 310.423 960.5 310.287C960.362 310.15 960.283 309.964 960.28 309.77L960.18 284.24C960.167 281.78 959.523 281.603 958.25 283.71C942.83 309.15 913.31 318.75 884.06 314.69C856.01 310.79 832.59 292.11 822.56 265.81C822.14 264.717 821.467 264.523 820.54 265.23C794.66 284.92 761.39 308.12 728.29 310.82C702.46 312.93 678.6 300.98 660.17 284.58C658.897 283.453 657.697 282.657 656.57 282.19C656.408 282.121 656.232 282.089 656.056 282.096C655.879 282.103 655.707 282.149 655.55 282.23C642.903 288.91 630.617 294.393 618.69 298.68C601.68 304.79 582.62 307.82 564.28 309.82C557.14 310.6 550.607 310.74 544.68 310.24C524.76 308.57 504.96 303.89 490.92 288.59C478.35 274.9 471.14 258.89 466.79 240.87C461.58 219.22 463.1 196.72 467.33 175.03C470.22 160.19 479.82 143.93 488.32 131.58C499.4 115.5 513.45 105.44 532.72 101.62C540.01 100.17 546.88 100.71 554.75 101.75C579.67 105.03 593.02 118.77 602.45 141.39C603.363 143.597 603.88 145.923 604 148.37C605.26 175.56 598.8 195.89 580.6 216.36C572.68 225.27 564.54 234.09 555.27 241.28C549.69 245.6 543.917 249.647 537.95 253.42C533.98 255.94 532.11 260.51 537.72 262.47C551.107 267.15 564.433 267.727 577.7 264.2C596.68 259.153 615.513 251.357 634.2 240.81C634.527 240.63 634.7 240.353 634.72 239.98C634.8 238.76 634.67 237.16 634.33 235.18C629.94 209.87 632.64 185.83 639.28 161.25C639.767 159.443 640.353 157.977 641.04 156.85C653.44 136.41 671.3 109.18 696.18 102.91C710.97 99.18 725.08 98.54 739.28 104.94C745.77 107.87 752.05 111.11 756.95 116.28C770.8 130.9 775.18 147.11 773.58 167C773.24 171.253 772.237 175.66 770.57 180.22C763.83 198.74 754.44 214.71 739.25 227.48C729.463 235.707 719.62 243.873 709.72 251.98C706.41 254.69 705.32 259.69 710.74 260.74C747.87 267.97 786.39 235.84 812.74 213.89C813.005 213.668 813.217 213.389 813.359 213.074C813.501 212.759 813.57 212.416 813.56 212.07C811.88 151.29 849.77 94.01 917.53 102.75C936.21 105.157 950.177 114.163 959.43 129.77C959.663 130.157 959.813 130.127 959.88 129.68ZM691.08 205.37C708.31 195.89 722.64 181.06 731.58 163.55C734.79 157.25 734.1 151.69 732.09 145.12C730.55 140.08 728.14 138.24 722.68 138.44C696.17 139.41 689.1 167.23 685.24 188.3C684.28 193.57 680.19 211.37 691.08 205.37ZM554.17 145.55C520.5 142.63 513.65 183.79 511.42 207.58C510.81 214.17 515.43 214.2 519.91 211.57C534.877 202.777 546.863 191.07 555.87 176.45C559.317 170.85 561.2 166.097 561.52 162.19C561.83 158.46 559.75 146.04 554.17 145.55ZM877.42 226.81C879.78 243.45 888.78 260.44 905.64 265.49C930.67 272.99 951.2 258.33 958.16 234.47C959.933 228.417 960.957 221.76 961.23 214.5C961.99 194.68 962.56 176.17 948.26 161.34C935.66 148.26 914.19 146.64 899.27 155.76C877.17 169.26 874.21 204.24 877.42 226.81Z" fill="#FE5829"/>
<path d="M20.24 236.77C48.18 259.41 86.07 271.32 121.54 261.75C143.18 255.92 153.39 234.22 136.29 216.81C130.99 211.41 125.29 207.153 119.19 204.04C109.31 199 97.2534 193.437 83.02 187.35C47.54 172.18 19.36 149.72 18.09 107.68C15.93 36.49 86.32 17.48 142.29 20.7C161.35 21.79 180.02 24.57 197.98 30.81C198.813 31.1034 199.233 31.69 199.24 32.57L199.25 88.82C199.25 90.1667 198.68 90.4834 197.54 89.77C171.44 73.34 133.68 64.97 103.82 75.85C88.61 81.39 80.03 96.77 88.27 112.19C92.9 120.83 108.32 130.05 116.51 133.74C152.92 150.15 200.61 166.17 209.84 211.18C213.16 227.37 212.25 246.95 206.23 262.53C188.08 309.49 130.58 317.54 87.47 315.24C64.12 313.99 42.12 309.97 20.63 300.61C20.2195 300.428 19.8706 300.131 19.6257 299.755C19.3807 299.378 19.2502 298.939 19.25 298.49V237.24C19.2514 237.126 19.2847 237.014 19.3463 236.918C19.4079 236.822 19.4952 236.745 19.5984 236.696C19.7015 236.647 19.8163 236.628 19.9298 236.641C20.0432 236.654 20.1507 236.699 20.24 236.77Z" fill="#FE5829"/>
<path d="M300.91 137.27C300.908 137.31 300.918 137.349 300.94 137.382C300.963 137.415 300.995 137.439 301.033 137.452C301.07 137.464 301.111 137.464 301.149 137.451C301.186 137.438 301.218 137.413 301.24 137.38C313.5 120.34 328.25 107.57 348.82 103.57C369.49 99.56 392.57 102.17 410.33 113.91C443.08 135.58 450.4 180.34 447.55 216.28C444.13 259.4 423.92 302.72 378 313.25C352.02 319.21 324.81 314.56 306.66 293.6C304.753 291.393 302.86 289.167 300.98 286.92C300.813 286.727 300.73 286.757 300.73 287.01L300.76 402.71C300.76 403.237 300.497 403.5 299.97 403.5H239.4C238.967 403.5 238.75 403.28 238.75 402.84V108.52C238.75 107.387 239.317 106.817 240.45 106.81C260.47 106.74 280.86 105.73 300.11 107.1C300.55 107.133 300.77 107.37 300.77 107.81L300.91 137.27ZM300.14 227C301.46 244.8 312.64 262.58 331.07 266.4C345.03 269.29 361.51 265.31 370.59 253.58C381.67 239.27 384.6 220.09 384.32 202.32C384.01 182.87 379.17 158 357.26 151.99C334.29 145.69 313.22 155.17 304.21 177.27C302.243 182.103 300.923 188.603 300.25 196.77C299.423 206.817 299.387 216.893 300.14 227Z" fill="#FE5829"/>
<path d="M1095.68 404H1064.69C1057.88 403.49 1052.06 403.62 1045.56 401.24C1045.45 401.196 1045.35 401.119 1045.28 401.019C1045.21 400.919 1045.17 400.801 1045.17 400.68L1044.93 352.02C1044.93 351.88 1044.97 351.742 1045.04 351.621C1045.11 351.5 1045.21 351.4 1045.33 351.33C1045.45 351.26 1045.59 351.223 1045.73 351.223C1045.86 351.223 1046 351.26 1046.12 351.33C1062.86 361.04 1087.7 362.29 1100.32 344.79C1105.8 337.2 1111.28 322.22 1115.71 311.4C1116.02 310.644 1116.03 309.796 1115.72 309.04L1034.61 107.57C1034.41 107.07 1034.58 106.82 1035.12 106.82L1102.85 106.76C1102.96 106.76 1103.07 106.796 1103.15 106.863C1103.24 106.929 1103.31 107.023 1103.34 107.13C1114.26 143.403 1125.25 179.677 1136.3 215.95C1140.85 230.86 1144.17 243.56 1146.76 257.7C1146.78 257.814 1146.85 257.917 1146.94 257.988C1147.03 258.059 1147.14 258.094 1147.26 258.087C1147.38 258.08 1147.49 258.03 1147.57 257.948C1147.65 257.866 1147.7 257.756 1147.71 257.64C1148.33 247.32 1151.61 237.61 1154.54 228.01C1166.79 187.883 1179.02 147.713 1191.25 107.5C1191.32 107.272 1191.46 107.072 1191.65 106.93C1191.84 106.788 1192.07 106.711 1192.31 106.71L1252.18 106.83C1252.78 106.83 1252.98 107.11 1252.77 107.67C1227.72 175.07 1202.89 241.863 1178.26 308.05C1164.69 344.54 1150.21 384.21 1111.93 400.68C1107.1 402.753 1101.69 403.86 1095.68 404Z" fill="#FE5829"/>
</g>
<defs>
<clipPath id="clip0_824_127">
<rect width="1296" height="404" fill="white"/>
</clipPath>
</defs>
</svg>
